<svg height="205.395959" viewBox="0 0 128 54" width="486.864496" xmlns="http://www.w3.org/2000/svg"><g fill="#58008a"><path d="m46.6 10.89s0 0 0-.07-.12-.18-.3-.44a26.23 26.23 0 0 0 -3.48-4 24.08 24.08 0 0 0 -16.31-6.38 25.15 25.15 0 0 0 -18.75 8.65 29 29 0 0 0 -4.76 7.52c0 .11-.06.14 0 .15s.06-.05.12-.15a20.71 20.71 0 0 1 5.26-6.65 28.07 28.07 0 0 1 18.22-6.32 29.69 29.69 0 0 1 15.22 4.11 26.56 26.56 0 0 1 4.35 3.24l.35.32s.06 0 .08 0"/><path d="m.83 24.78a1.13 1.13 0 0 1 0 .34 20.67 20.67 0 0 0 2 9 27.7 27.7 0 0 0 12.7 12.79 29.57 29.57 0 0 0 16.48 3 26.51 26.51 0 0 0 7.99-2.19c.15-.06.18-.1.2-.07l-.15.13c-.12.1-.32.27-.58.46a18.07 18.07 0 0 1 -4.86 2.76 24.35 24.35 0 0 1 -21-1 25.11 25.11 0 0 1 -12.36-17 28.34 28.34 0 0 1 -.49-8c0-.1 0-.16 0-.2a0 0 0 0 1 0 0"/><path d="m86.38 32.69h.21l1.65.15c2 .14 2.14.43 2.14.93s-.86 1.06-2.21 1.06c-1.89 0-2.27-.46-2.27-1.16a1.29 1.29 0 0 1 .48-.98zm1.69-9.1c1.08 0 1.31 1 1.31 1.8 0 1.15-.48 1.82-1.31 1.82-1.14 0-1.31-1.14-1.31-1.82s.17-1.8 1.31-1.8zm-5.07 10.61c0 1.79 1.47 2.49 4.77 2.49 3.46 0 5.7-1.27 5.7-3.39s-1.3-2.94-4.64-3.17l-1.41-.06c-.82-.09-.85-.28-.85-.47a.43.43 0 0 1 .18-.33 5.88 5.88 0 0 0 1.35.15c2.73 0 4.42-1.58 4.42-4.11a4.06 4.06 0 0 0 -.19-1.21 7.19 7.19 0 0 1 1.29-.1h.18v-2.87h-.19a4.86 4.86 0 0 0 -2.39 1.05 4.57 4.57 0 0 0 -3.12-1c-2.74 0-4.51 1.62-4.51 4.14a4 4 0 0 0 1.41 3.18 2.8 2.8 0 0 0 -1.27 2.08 1.73 1.73 0 0 0 .7 1.41 2.49 2.49 0 0 0 -1.43 2.21zm-31.5 9.11h-4.88v-5.83h-3.47v15.31h3.47v-6.55h4.88v6.55h3.5v-15.31h-3.5zm26.93 9.48h3.38v-14.2l-3.38.41zm-5.36-3.3a2.57 2.57 0 0 1 -1.76.76.8.8 0 0 1 -.86-.92c0-.64.31-1.44 2.62-2zm3.28.46v-4.87c0-2.59-1.16-3.8-3.64-3.8a7.63 7.63 0 0 0 -5.09 1.8l-.12.11 1.58 2.07.13-.1a5.43 5.43 0 0 1 2.92-1.16c.68 0 .94.3.94 1.08v.31c-4 .75-5.9 2.22-5.9 4.5 0 1.92 1 3 2.85 3a4 4 0 0 0 3.06-1.33 5.23 5.23 0 0 0 .2 1.08v.12h3.37l-.09-.23a8.24 8.24 0 0 1 -.21-2.53zm-9.35-20.57a2.57 2.57 0 0 1 -1.75.77.8.8 0 0 1 -.86-.92c0-.65.3-1.45 2.61-2zm.25 3.31h3.38l-.09-.24a8.11 8.11 0 0 1 -.26-2.61v-4.84c0-2.6-1.15-3.81-3.64-3.81a7.58 7.58 0 0 0 -5.06 1.81l-.12.1 1.54 2.05.14-.1a5.43 5.43 0 0 1 2.92-1.16c.67 0 .93.31.93 1.09v.31c-4 .74-5.89 2.21-5.89 4.49 0 1.93 1 3 2.84 3a4 4 0 0 0 3.06-1.3 4.53 4.53 0 0 0 .2 1.08zm11.75-11.52a4.25 4.25 0 0 0 -3.1 1.43v-1.21h-3.38v11.3h3.38v-7.69a2.83 2.83 0 0 1 1.74-.89c.42 0 .81.13.81 1.1v7.51h3.36v-8.5c0-2-.97-3.05-2.81-3.05zm9 16.6-3.36.44v3.29h-1.53v2.58h1.56v5.81c0 2.23.92 3 3.5 3a10.62 10.62 0 0 0 1.94-.16h.12v-2.57l-.24.11a3.61 3.61 0 0 1 -.83.11c-.93 0-1.13-.23-1.13-1.25v-5.05h2.34v-2.58h-2.37zm24.17-16.6a4.25 4.25 0 0 0 -3.09 1.43v-1.21h-3.38v11.3h3.38v-7.69a2.81 2.81 0 0 1 1.74-.89c.42 0 .81.13.81 1.1v7.51h3.37v-8.5c0-2-.95-3.05-2.8-3.05zm9.19 2.66c.32 0 1.28 0 1.46 2.06h-3c.18-1.33.74-2.06 1.57-2.06zm2.54 5-.1.16a2.71 2.71 0 0 1 -2.21 1.34c-1.08 0-1.67-.77-1.79-2.35h6.2v-.72c0-3.86-1.67-6.07-4.57-6.07-2.26 0-4.9 1.54-4.9 5.88 0 3.67 1.86 5.86 5 5.86a5 5 0 0 0 4.41-2.33l.1-.13zm-25.55 12.45a4.28 4.28 0 0 0 -3.1 1.43v-5.91l-3.38.46v15.53h3.38v-7.71a2.83 2.83 0 0 1 1.75-.89c.43 0 .82.13.82 1.1v7.5h3.36v-8.47c-.01-1.99-.99-3.04-2.83-3.04zm.79-11c-.7 0-1.62-.33-1.62-3.2 0-2.17.5-3.13 1.62-3.13.69 0 1.61.32 1.61 3.13 0 2.18-.5 3.17-1.61 3.17zm0-9.08a4.71 4.71 0 0 0 -3.48 1.37 6.21 6.21 0 0 0 -1.52 4.51c0 4.32 2.58 5.86 5 5.86s5-1.54 5-5.86a6.21 6.21 0 0 0 -1.53-4.52 4.71 4.71 0 0 0 -3.47-1.39zm-37.66 22.74c.32 0 1.27 0 1.45 2.06h-3c.18-1.33.72-2.06 1.55-2.06zm2.44 5.14a2.73 2.73 0 0 1 -2.22 1.34c-1.08 0-1.66-.77-1.79-2.35h6.09v-.73c0-3.85-1.66-6.06-4.56-6.06-2.26 0-4.9 1.54-4.9 5.88 0 3.67 1.86 5.86 5 5.86a5 5 0 0 0 4.46-2.34l.09-.13-2-1.63zm-17.3-21.84v-10.1h-3.32v10c0 2-.58 2.87-2 2.87s-2-.81-2-2.89v-9.98h-3.44v10.12c0 3.76 1.82 5.67 5.41 5.67s5.35-1.86 5.35-5.69zm-28.17-1.16c-1.1-2.2-4.56-8.55-4.72-8.85l-.05-.09h-3.5v15.55h3.18v-9.17c1.13 2.14 4.87 8.76 5.05 9.08l.05.09h3.17v-15.55h-3.18zm41.25 3.7h-4.7v-12.64h-3.45v15.55h8.15zm-29.18 2.91v-6.11l4.39-9.44h-3.42l-2.62 6.19-2.62-6.19h-3.56l4.37 9.46v6.09z"/></g></svg>